<?xml version="1.0" encoding="utf-8"?>
<!-- Generator: Adobe Illustrator 21.1.0, SVG Export Plug-In . SVG Version: 6.00 Build 0)  -->
<svg version="1.1" id="Layer_1" xmlns="http://www.w3.org/2000/svg" xmlns:xlink="http://www.w3.org/1999/xlink" x="0px" y="0px"
	 viewBox="0 0 26 26" style="enable-background:new 0 0 26 26;" xml:space="preserve">
<style type="text/css">
	.st0{fill:#666666;}
	.st1{fill:#FFFFFF;}
</style>
<path class="st0" d="M22,0H4C1.8,0,0,1.8,0,4v18c0,2.2,1.8,4,4,4h18c2.2,0,4-1.8,4-4V4C26,1.8,24.2,0,22,0z"/>
<path class="st1" d="M22,0H4C1.8,0,0,1.8,0,4v18c0,2.2,1.8,4,4,4h18c2.2,0,4-1.8,4-4V4C26,1.8,24.2,0,22,0z M19,11.6L12.6,18
	c-0.6,0.6-1.5,0.6-2.1,0L7,14.4c-0.6-0.6-0.6-1.5,0-2.1s1.5-0.6,2.1,0l2.5,2.5l5.3-5.3c0.6-0.6,1.5-0.6,2.1,0l0,0
	C19.6,10.1,19.6,11,19,11.6z"/>
</svg>
