<svg xmlns="http://www.w3.org/2000/svg" id="Layer_1" viewBox="0 0 32 32"><path d="M16 1C7.7 1 1 7.7 1 16s6.7 15 15 15 15-6.7 15-15c0-4-1.6-7.8-4.4-10.6C23.8 2.6 20 1 16 1zm11.6 10.4h-4.3L22 10c-.4-.6-1-1-1.5-1.4V4.4c3.2 1.2 5.8 3.8 7 7zm.7 6.4h-4c.4-1.3.3-2.6 0-3.8h4c.2 1.2.2 2.5 0 3.8zm-8 2.5c-2.4 2.4-6.2 2.4-8.6 0-2.4-2.4-2.4-6.2 0-8.6 2.4-2.4 6.2-2.4 8.6 0 2.4 2.4 2.4 6.2 0 8.6zM18 3.7v4c-1.4-.4-2.7-.4-4 0v-4c1.4-.2 2.6-.2 4 0zM7 7.2C8.4 6 10 5 11.5 4.4v4.3c-1 .7-2 1.6-2.8 2.8H4.4C5 9.8 6 8.5 7.2 7.2zm.4 10.6h-4V14h4c-.3 1.2-.3 2.5 0 3.8zm-3.3 2.5h4.2c.7 1.2 1.8 2.3 3 3v4.2c-3.3-1.2-6-3.8-7.2-7.2zm9.8 8v-4c1.4.4 2.7.4 4 0v4c-1.4.2-2.6.2-4 0zM25 24.8C23.6 26 22 27 20.5 27.6v-4.2c1.2-.7 2.3-1.8 3-3h4.2c-.7 1.6-1.6 3-3 4.4z" fill="#6299C3"/></svg>