<?xml version="1.0" encoding="utf-8"?>
<!-- Generator: Adobe Illustrator 21.1.0, SVG Export Plug-In . SVG Version: 6.00 Build 0)  -->
<svg version="1.1" id="Layer_1" xmlns="http://www.w3.org/2000/svg" xmlns:xlink="http://www.w3.org/1999/xlink" x="0px" y="0px"
	 viewBox="0 0 34 30" style="enable-background:new 0 0 34 30;" xml:space="preserve">
<style type="text/css">
	.st0{fill:#2773AE;}
</style>
<g>
	<g>
		<path class="st0" d="M17,13c2.3,0,4.2-1.8,4.2-4c0-2.2-1.9-4-4.2-4s-4.2,1.8-4.2,4C12.8,11.2,14.6,13,17,13z M17,7
			C18.1,7,19,7.9,19,9c0,1.1-0.9,2-2.1,2c-1.1,0-2.1-0.9-2.1-2C14.9,7.9,15.8,7,17,7z M25,16.9c3.4-4.1,3.2-10-0.6-13.9
			C20.5-0.9,14.1-1,10,2.6C9.8,2.8,9.7,2.9,9.6,3C5.8,6.9,5.5,12.8,9,16.9c-5.6,1.2-9,3.4-9,6.2C0,27,7.3,30,17,30s17-3,17-6.9
			C34,20.3,30.6,18.1,25,16.9z M11.1,4.4c3-3.1,8.1-3.2,11.4-0.3c0.1,0.1,0.2,0.2,0.4,0.3c3.3,3.3,3.3,8.4,0,11.7L17,22l-5.9-5.8
			C7.8,12.9,7.8,7.7,11.1,4.4z M27.9,26.3C25,27.4,21.1,28,17,28s-8-0.6-10.9-1.7c-2.5-0.9-4-2.1-4-3.3c0-1.5,2.9-3.5,8.5-4.4
			l5.6,5.5c0.4,0.4,1.1,0.4,1.5,0c0,0,0,0,0,0l5.6-5.5c5.6,0.9,8.6,2.9,8.6,4.4C31.9,24.2,30.4,25.4,27.9,26.3z"/>
	</g>
</g>
</svg>
