<?xml version="1.0" encoding="utf-8"?>
<svg xmlns="http://www.w3.org/2000/svg"
	xmlns:xlink="http://www.w3.org/1999/xlink"
	width="14px" height="17px" viewBox="0 0 14 17">
<path fillRule="evenodd" d="M 1.29 6.71C 1.29 6.71 12.71 6.71 12.71 6.71 13.42 6.71 14 7.3 14 8.01 14 8.01 14 15.7 14 15.7 14 16.42 13.42 17 12.71 17 12.71 17 1.29 17 1.29 17 0.58 17-0 16.42-0 15.7-0 15.7-0 8.01-0 8.01-0 7.3 0.58 6.71 1.29 6.71 1.29 6.71 1.29 6.71 1.29 6.71ZM 7.65 12.06C 8.46 11.62 8.8 11.1 8.84 10.69 9.03 8.52 5.11 8.47 5.16 10.7 5.17 11.1 5.47 11.59 6.21 12.05 6 13.04 5.89 13.64 5.89 14.65 6.59 14.65 7.3 14.65 8 14.65 8 13.64 7.86 13.04 7.65 12.06 7.65 12.06 7.65 12.06 7.65 12.06ZM 9.43 5.78C 9.46 1.16 4.57 1.18 4.57 5.86 3.76 5.86 2.95 5.86 2.14 5.86 2.14-1.89 11.86-1.92 11.86 5.78 11.05 5.78 11.86 5.78 9.43 5.78Z" fill="rgb(188,188,188)"/></svg>