<?xml version="1.0" encoding="utf-8"?>
<!-- Generator: Adobe Illustrator 21.1.0, SVG Export Plug-In . SVG Version: 6.00 Build 0)  -->
<svg version="1.1" id="Layer_1" xmlns="http://www.w3.org/2000/svg" xmlns:xlink="http://www.w3.org/1999/xlink" x="0px" y="0px"
	 viewBox="0 0 318 79.2" style="enable-background:new 0 0 318 79.2;" xml:space="preserve">
<style type="text/css">
	<!--.st0{fill:#0078AF;}-->
	.st0{fill:#fff;}
	<!--.st1{fill:#898989;}-->
	.st1{fill:#fff;}
</style>
<g>
	<path class="st0" d="M73,31.6h-8.5v-16H53v43h20c0,0,13-1,13-14S73,31.6,73,31.6z M71.5,50.1h-7v-10h7c0,0,4,1,4,5
		S71.5,50.1,71.5,50.1z"/>
	<rect x="92.5" y="15.1" class="st0" width="12" height="44"/>
	<polygon class="st0" points="162.5,15.1 154.5,15.1 141.5,41.1 128.5,15.1 120.5,15.1 109.5,59.1 121.5,59.1 126.5,34.1 
		138.5,59.1 141.5,59.1 144.5,59.1 156.5,34.1 161.5,59.1 173.5,59.1 	"/>
	<polygon class="st0" points="197.5,15.1 178.5,15.1 178.5,59.1 189.5,59.1 189.5,26.1 197.5,26.1 205.5,26.1 205.5,59.1 
		216.5,59.1 216.5,15.1 	"/>
	<path class="st0" d="M246.5,14.1c-19,1.2-21,18-21,24c0,15,11,22,24,22s17-9,17-9l-8-5c0,0-1,5-10,5c-11,0-12-10-12-10h33v-2
		C269.5,39.1,270,12.6,246.5,14.1z M236.5,32.1c0,0,1-9,12-9s12,9,12,9H236.5z"/>
	<path class="st0" d="M34,26.6c0,0,8-1,8-11c0-20-42-15-42-15v58h27c0,0,20-2,20-16C47,31.6,34,26.6,34,26.6z M14.5,11.1h8
		c0,0,6,0,6,6s-6,6-6,6h-8V11.1z M27.5,48.1h-13v-14h13c0,0,6,1,6,7S27.5,48.1,27.5,48.1z"/>
	<polygon class="st0" points="299,15.6 298,15.6 296,15.6 295,15.6 293,15.6 292,15.6 273,59.6 284,59.6 295,33.6 296,33.6 
		307,59.6 318,59.6 	"/>
</g>
<g>
	<path class="st1" d="M7,71.1h3c0,0-1-4-5-4c-1.6,0-2.7,0.6-3.5,1.4c-1,1-1.5,2.4-1.5,3.9v2.7c0,0,0,4,5,4s5-4,5-4H7c0,0,0,2-2,2
		s-2-2-2-2v-4c0,0,0.3-1.5,2-1.5S7,71.1,7,71.1z"/>
	<path class="st1" d="M23.4,72.2V70l5.6,0v-2h-8.2v11.1l2.6,0c0,0,6.5,0.5,6.5-3.4C30,71.7,23.4,72.2,23.4,72.2z M23.4,77.1v-2.8
		c0,0,4.5-0.2,4.5,1.3S23.4,77.1,23.4,77.1z"/>
	<path class="st1" d="M41.4,72.1v-4.1h-2.4v11.1c0,0,8.9,0.9,8.9-3.3S41.4,72.1,41.4,72.1z M41.3,77v-2.9c0,0,4.4,0,4.4,1.5
		C45.7,77.2,41.3,77,41.3,77z"/>
	<rect x="48.9" y="68.1" class="st1" width="2.7" height="11"/>
	<polygon class="st1" points="60,68.1 70,68.1 70,70.5 66.3,70.5 66.3,79.1 63.7,79.1 63.7,70.5 60,70.5 	"/>
	<path class="st1" d="M85.3,68.1c-2.6,0-5.3,2.5-5.3,5.5s2.6,5.5,5.3,5.5s5.4-2.5,5.4-5.5S87.9,68.1,85.3,68.1z M85.3,76.9
		c-1.5,0-2.6-1-2.6-3.1s1.1-3.4,2.6-3.4s2.5,1.4,2.5,3.4C87.8,75.8,86.9,76.9,85.3,76.9z"/>
	<path class="st1" d="M107.9,73.1c0,0,1.5-0.2,1.5-2.1c0-3.7-7.9-2.8-7.9-2.8v10.9h5.1c0,0,3.7-0.4,3.7-3
		C110.3,74,107.9,73.1,107.9,73.1z M104.2,70.2h1.5c0,0,1.1,0,1.1,1.1s-1.1,1.1-1.1,1.1h-1.5V70.2z M106.7,77.1h-2.4v-2.6h2.4
		c0,0,1.1,0.2,1.1,1.3C107.8,76.9,106.7,77.1,106.7,77.1z"/>
	<path class="st1" d="M128.5,79.1h3.1l-5.3-11H126h-0.6h-0.3h-0.6h-0.3l-5.3,11h3.1l1-2.1h4.4L128.5,79.1z M123.9,75.1l1.2-2.6h0.3
		l1.2,2.6H123.9z"/>
	<path class="st1" d="M140.6,71.2c0,1.8,1.3,2.8,2.7,3.3l-2.9,4.6h2.7l2.6-4.2c0.8,0.1,1.4,0,1.4,0v4.1h2.4V68
		C149.5,68,140.6,67.1,140.6,71.2z M147.1,72.9c0,0-4.4,0-4.4-1.5c0-1.5,4.4-1.4,4.4-1.4V72.9z"/>
	<path class="st1" d="M175.1,73.7V73c2.3-2.9,2.3-5.1,2.3-5.1h-2.1c0,0-0.7,2.8-2.2,4.4l-1.2,0l0-4.4h-2.4v11.1h2.4l0-4.6l1.2,0
		l2.7,4.6h2.5L175.1,73.7z"/>
	<path class="st1" d="M193.4,67.9c-2.6,0-5.3,2.5-5.3,5.5s2.6,5.5,5.3,5.5s5.4-2.5,5.4-5.5S196,67.9,193.4,67.9z M193.5,76.6
		c-1.5,0-2.6-1-2.6-3.1s1.1-3.4,2.6-3.4s2.5,1.4,2.5,3.4C195.9,75.6,195,76.6,193.5,76.6z"/>
	<polygon class="st1" points="218,68.2 216.2,68.2 213.3,74.6 210.4,68.2 208.6,68.2 206.1,79.1 208.8,79.1 209.9,72.9 212.6,79.1 
		213.3,79.1 214,79.1 216.7,72.9 217.8,79.1 220.5,79.1 	"/>
	<polygon class="st1" points="233.1,68.4 228.5,68.4 228.5,79.1 231.2,79.1 231.2,71 233.1,71 235.1,71 235.1,79.1 237.8,79.1 
		237.8,68.4 	"/>
	<path class="st1" d="M256.6,79.1h3.1l-5.3-11h-0.3h-0.6h-0.3h-0.6h-0.3l-5.3,11h3.1l1-2.1h4.4L256.6,79.1z M252,75.2l1.2-2.6h0.3
		l1.2,2.6H252z"/>
	<polygon class="st1" points="275.6,68.1 275.6,72.3 271.3,72.3 271.3,68.1 268.7,68.1 268.7,79.1 271.3,79.1 271.3,74.7 
		275.6,74.7 275.6,79.1 278.3,79.1 278.3,68.1 	"/>
	<polygon class="st1" points="295.7,68.1 295.7,69.6 291.4,74.6 291.4,68.1 288.8,68.1 288.8,79.1 291.4,79.1 291.4,78.7 
		295.7,73.7 295.7,79.1 298.4,79.1 298.4,68.1 	"/>
	<path class="st1" d="M309.1,71.3c0,1.8,1.3,2.8,2.7,3.3l-2.9,4.6h2.7l2.6-4.2c0.8,0.1,1.4,0,1.4,0v4.1h2.4V68.1
		C318,68.1,309.1,67.2,309.1,71.3z M315.6,73c0,0-4.4,0-4.4-1.5c0-1.5,4.4-1.4,4.4-1.4V73z"/>
</g>
</svg>
