<svg xmlns="http://www.w3.org/2000/svg" width="40" height="41"><path fill="#6299C3" fill-opacity="NaN" d="M21.7 27.3c.3.2.6.3 1 .3.3 0 .7 0 1-.5l4.5-5c.4-.6.4-1.4 0-2l-4.5-5c-.5-.7-1.4-.8-2-.3-.6.5-.7 1.5 0 2l2.3 3h-9c-.7 0-1.4.5-1.4 1.3s.7 1.4 1.4 1.4h9l-2.4 3c-.6.5-.5 1.4 0 2zm10.3-11c.3.8 1.2 1.2 2 1 .6-.4 1-1.3.7-2C32.4 9.6 27 6 21 6 12.5 6 6 12.7 6 21s6.6 15 15 15c6 0 11.4-3.6 13.7-9.3.3-.7 0-1.6-.8-2-.8-.2-1.7.2-2 1C30.2 30 25.8 33 21 33 14 33 8.7 27.6 8.7 21c0-6.7 5.4-12 12-12 5 0 9.4 2.8 11.2 7.4z"/></svg>