<svg xmlns="http://www.w3.org/2000/svg" id="Layer_1" viewBox="0 0 32 32"><path d="M13 0c-.5 0-1 .5-1 1l-.7 3c-1.3.5-2.5 1.2-3.5 2L4.6 4.8c-.5-.2-1 0-1.4.4l-3 5c-.4.3-.3 1 0 1.2l2.6 2-.3 2.5c0 .7 0 1.5.3 2.3l-2.5 2c-.4.4-.5 1-.2 1.5l3.2 5c.3.3 1 .5 1.4.3l3.2-1c1 .8 2.3 1.4 3.6 2l.6 3c0 .6.5 1 1 1h6c.5 0 1-.4 1-1l.7-3c1.3-.6 2.5-1.2 3.6-2l3.2 1.2c.5.2 1 0 1.3-.4l3-5c.4-.3.3-1 0-1.3l-2.6-2 .3-2.5c0-.8 0-1.6-.3-2.4l2.5-2c.4-.4.5-1 .2-1.4l-3.2-5c-.3-.3-1-.5-1.3-.3l-3.3 1c-1-.8-2.3-1.4-3.6-2L20 1c0-.6-.5-1-1-1h-6zm1 2h4l.6 3c0 .4.4.7.8.8 1.5.4 2.8 1.2 4 2.2.3.3.8.3 1 .2l3-1 2 3.3-2.3 2c-.2.2-.3.6-.2 1 .2.8.3 1.7.3 2.6s0 1.8-.2 2.7c0 .4 0 .8.3 1l2.4 2-2 3.2-3-1c-.3-.2-.7-.2-1 0-1.2 1-2.5 1.8-4 2.3-.4 0-.7.4-.8.8l-.6 3h-4l-.6-3c0-.4-.4-.7-.8-.8-1.5-.4-2.8-1.2-4-2.2-.3-.3-.8-.3-1-.2l-3 1-2-3.3 2.3-2c.2-.2.3-.6.2-1-.2-.8-.4-1.6-.4-2.5 0-1 0-1.7.3-2.6.2-.4 0-.8-.2-1l-2.3-2 2-3.3 3 1c.4.3 1 .2 1.2 0 1.2-1 2.5-1.7 4-2.2.3 0 .6-.4.7-.8l.6-3zm2 6.5c-4.3 0-7.8 3.4-7.8 7.5 0 4 3.5 7.5 7.8 7.5s7.8-3.4 7.8-7.5c0-4-3.5-7.5-7.8-7.5zm0 2.2c3 0 5.6 2.4 5.6 5.3 0 3-2.5 5.3-5.6 5.3S10.4 19 10.4 16s2.5-5.3 5.6-5.3z" fill="#6299C3"/></svg>