<?xml version="1.0" encoding="utf-8"?>
<!-- Generator: Adobe Illustrator 21.1.0, SVG Export Plug-In . SVG Version: 6.00 Build 0)  -->
<svg version="1.1" id="Layer_1" xmlns="http://www.w3.org/2000/svg" xmlns:xlink="http://www.w3.org/1999/xlink" x="0px" y="0px"
	 viewBox="0 0 44 44" style="enable-background:new 0 0 44 44;" xml:space="preserve">
<style type="text/css">
	.st0{fill-rule:evenodd;clip-rule:evenodd;fill:#80B9D7;}
	.st1{fill:#FFFFFF;}
</style>
<path class="st0" d="M22,0c12.2,0,22,9.8,22,22c0,12.2-9.8,22-22,22C9.8,44,0,34.2,0,22C0,9.8,9.8,0,22,0z"/>
<path class="st1" d="M19.6,9c-0.4,0-0.8,0.4-0.9,0.7l-0.5,2.6c-1.1,0.4-2,0.9-2.9,1.6l-2.6-0.9c-0.4-0.1-0.9,0-1.1,0.4l-2.5,3.9
	C8.9,17.6,9,18,9.3,18.3l2,1.7c-0.1,0.6-0.2,1.3-0.2,2c0,0.7,0.1,1.3,0.2,2l-2,1.7C9,26,8.9,26.4,9.1,26.8l2.5,3.9
	c0.2,0.3,0.7,0.5,1.1,0.4l2.6-0.9c0.9,0.7,1.8,1.2,2.9,1.5l0.5,2.6c0.1,0.4,0.5,0.7,0.9,0.7h4.8c0.4,0,0.8-0.3,0.9-0.7l0.5-2.6
	c1-0.4,2-0.9,2.9-1.5l2.6,0.9c0.4,0.1,0.9,0,1.1-0.4l2.5-3.9c0.2-0.3,0.1-0.8-0.2-1.1l-2-1.7c0.1-0.6,0.2-1.3,0.2-2
	c0-0.7-0.1-1.3-0.2-2l2-1.7c0.3-0.3,0.4-0.8,0.2-1.1l-2.5-3.9c-0.2-0.3-0.7-0.5-1.1-0.4l-2.6,0.9c-0.9-0.7-1.8-1.2-2.9-1.6l-0.5-2.6
	C25.2,9.3,24.8,9,24.4,9H19.6L19.6,9z M20.3,10.7h3.3l0.4,2.3c0.1,0.3,0.3,0.6,0.6,0.7c1.2,0.4,2.3,1,3.2,1.8
	c0.2,0.2,0.6,0.3,0.9,0.2l2.3-0.8l1.7,2.7l-1.8,1.6c-0.2,0.2-0.4,0.6-0.3,0.9c0.2,0.7,0.3,1.4,0.3,2.1c0,0.7-0.1,1.4-0.3,2.1
	c-0.1,0.3,0,0.6,0.3,0.8l1.8,1.6l-1.7,2.7l-2.3-0.8c-0.3-0.1-0.7-0.1-0.9,0.2c-0.9,0.8-2,1.4-3.2,1.8c-0.3,0.1-0.6,0.4-0.6,0.7
	l-0.4,2.3h-3.3l-0.4-2.3c-0.1-0.3-0.3-0.6-0.6-0.7c-1.2-0.4-2.3-1-3.2-1.8c-0.2-0.2-0.6-0.3-0.9-0.2l-2.3,0.8l-1.7-2.7l1.8-1.6
	c0.2-0.2,0.4-0.5,0.3-0.8c-0.2-0.7-0.3-1.4-0.3-2.1c0-0.7,0.1-1.4,0.3-2.1c0.1-0.3,0-0.6-0.3-0.9l-1.8-1.6l1.7-2.7l2.3,0.8
	c0.3,0.1,0.7,0.1,0.9-0.2c0.9-0.8,2-1.4,3.2-1.8c0.3-0.1,0.6-0.4,0.6-0.7L20.3,10.7z M22,15.9c-3.5,0-6.3,2.7-6.3,6.1
	c0,3.3,2.9,6.1,6.3,6.1s6.3-2.7,6.3-6.1C28.3,18.7,25.5,15.9,22,15.9z M22,17.7c2.5,0,4.5,1.9,4.5,4.3c0,2.4-2,4.3-4.5,4.3
	c-2.5,0-4.5-1.9-4.5-4.3C17.5,19.6,19.5,17.7,22,17.7z"/>
</svg>
