<svg xmlns="http://www.w3.org/2000/svg" id="Layer_1" viewBox="0 0 32 32"><path d="M26.4 19.8v-4.4c0-4.2-2.4-8-6.2-9.7v-.4c0-2.3-1.8-4.2-4-4.3-2.4 0-4.3 1.8-4.4 4v.7C8 7.4 5.6 11.2 5.6 15.4v4.4c-2 .7-3 3-2.3 5 .6 1.6 2 2.6 3.7 2.6h4.3C12 29.4 14 31 16 31c2.2 0 4.2-1.5 4.8-3.6H25c2.2 0 4-1.7 4-4 0-1.6-1-3-2.6-3.6zM16 3.8c.7 0 1.3.5 1.5 1h-3c.2-.5.8-1 1.5-1zm0 3.7c4.3 0 7.8 3.6 7.8 8v4H8.2v-4c0-4.4 3.5-8 7.8-8zm0 20.8c-.8 0-1.5-.3-2-1h4c-.5.7-1.2 1-2 1zm9-3.6H7c-.8 0-1.3-.5-1.3-1.2s.5-1.2 1.2-1.2h18c.8 0 1.3.5 1.3 1.2s-.5 1.2-1.2 1.2z" fill="#6299C3"/></svg>