<?xml version="1.0" encoding="utf-8"?>
<!-- Generator: Adobe Illustrator 21.1.0, SVG Export Plug-In . SVG Version: 6.00 Build 0)  -->
<svg version="1.1" id="Layer_1" xmlns="http://www.w3.org/2000/svg" xmlns:xlink="http://www.w3.org/1999/xlink" x="0px" y="0px"
	 viewBox="0 0 44 44" style="enable-background:new 0 0 44 44;" xml:space="preserve">
<style type="text/css">
	.st0{fill-rule:evenodd;clip-rule:evenodd;fill:#80B9D7;}
	.st1{fill:#FFFFFF;}
</style>
<path class="st0" d="M22,0c12.2,0,22,9.8,22,22c0,12.2-9.8,22-22,22C9.8,44,0,34.2,0,22C0,9.8,9.8,0,22,0z"/>
<path class="st1" d="M25.8,23.1c1.6-1.1,2.6-2.8,2.6-4.7v-2.1c0-3.2-2.9-5.8-6.4-5.8s-6.4,2.6-6.4,5.8v2.1c0,1.9,1,3.6,2.6,4.7
	c-2.7,1.1-5.2,3.5-5.2,6v1.4c0,2,2.6,3.1,7.9,3.1h2.2c5.2,0,7.9-1,7.9-3.1V29C31,26.6,28.5,24.1,25.8,23.1z M17.9,16.3
	c0-2.1,1.8-3.8,4.1-3.8s4.1,1.7,4.1,3.8v2.1c0,2.1-1.8,3.8-4.1,3.8s-4.1-1.7-4.1-3.8V16.3z M28.7,30.4c0,0.3-1.3,1-5.6,1h-2.2
	c-4.3,0-5.6-0.8-5.6-1V29c0-2,3.2-4.5,5.6-4.5h2.2c2.5,0,5.6,2.5,5.6,4.5V30.4z"/>
</svg>
