<?xml version="1.0" encoding="utf-8"?>
<!-- Generator: Adobe Illustrator 21.1.0, SVG Export Plug-In . SVG Version: 6.00 Build 0)  -->
<svg version="1.1" id="Layer_1" xmlns="http://www.w3.org/2000/svg" xmlns:xlink="http://www.w3.org/1999/xlink" x="0px" y="0px"
	 viewBox="0 0 44 44" style="enable-background:new 0 0 44 44;" xml:space="preserve">
<style type="text/css">
	.st0{fill-rule:evenodd;clip-rule:evenodd;fill:#80B9D7;}
	.st1{fill:#FFFFFF;}
</style>
<path class="st0" d="M22,0c12.2,0,22,9.8,22,22c0,12.2-9.8,22-22,22C9.8,44,0,34.2,0,22C0,9.8,9.8,0,22,0z"/>
<path class="st1" d="M30,24.9v-3.4c0-3.2-1.9-6.1-4.8-7.5v-0.3c0.1-1.8-1.3-3.3-3.1-3.3c-1.8-0.1-3.3,1.4-3.3,3.1c0,0.1,0,0.1,0,0.2
	v0.3c-2.9,1.3-4.8,4.2-4.8,7.5v3.4c-1.6,0.6-2.4,2.3-1.8,3.8c0.4,1.2,1.6,2,2.8,2h3.3c0.5,1.6,2,2.8,3.7,2.8H22
	c1.7,0,3.2-1.1,3.7-2.8H29c1.6,0,3-1.3,3-3C32,26.5,31.2,25.4,30,24.9z M22,12.6c0.5,0,1,0.4,1.1,0.9c-0.7-0.1-1.5-0.1-2.3,0
	C21,13,21.5,12.6,22,12.6z M22,15.5c3.3,0,6,2.7,6,6.1v3.2H16v-3.2C16,18.2,18.7,15.5,22,15.5L22,15.5z M22,31.4L22,31.4
	c-0.6,0-1.2-0.3-1.5-0.7h2.9C23.1,31.2,22.6,31.4,22,31.4L22,31.4z M29,28.7H15c-0.5,0-0.9-0.4-0.9-0.9c0-0.5,0.4-0.9,0.9-0.9l0,0
	h14c0.5,0,0.9,0.4,0.9,0.9C30,28.3,29.5,28.7,29,28.7z"/>
</svg>
