<svg xmlns="http://www.w3.org/2000/svg" id="Layer_1" viewBox="0 0 44 44"><style>.st0{fill-rule:evenodd;clip-rule:evenodd;fill:#2773AE;}</style><path d="M22 0C9.8 0 0 9.8 0 22s9.8 22 22 22 22-9.8 22-22S34.2 0 22 0zm7 30.7h-3.3c-.5 1.6-2 2.8-3.7 2.8-1.7 0-3.2-1-3.7-2.8H15c-1.3 0-2.4-.8-2.8-2-.6-1.6.3-3.3 1.8-3.8v-3.5c0-3.2 2-6 4.8-7.5v-.3-.2c0-1.8 1.5-3.2 3.3-3 2 0 3.3 1.4 3.2 3.2v.3c3 1.3 4.8 4.2 4.8 7.5V25c1.2.3 2 1.5 2 2.7 0 1.7-1.3 3-3 3z" class="st0"/><path d="M28 21.6c0-3.3-2.7-6-6-6s-6 2.6-6 6v3.2h12v-3.2zM23 13.5c0-.5-.5-1-1-1s-1 .5-1 1h2zM22 31.4c.6 0 1.2-.3 1.5-.7h-3c.4.5 1 .7 1.5.7zM29 26.8H15c-.5 0-1 .4-1 1 0 .4.5.8 1 .8h14c.5 0 1-.4 1-1 0-.4-.5-.8-1-.8z" class="st0"/></svg>