<svg xmlns="http://www.w3.org/2000/svg" viewBox="0 0 46 39" fill="#2773AE"><path d="M6 8.3H0L8.4 0v6c0 1.4-1 2.3-2.2 2.3zM24 26.7c1.8 0 4 .6 4.6 2 .2.3.3 1-.2 2-.2.4-.6.6-1 .6-.3 0-1.4 0-4-3h-1.4c-3 .3-6 1.3-9 2.7 0 .3-.2.7-.4 1l-.2.3c-1.5 2.6-3.2 5-4.7 5-.3 0-.8 0-1-.6-.4-.4-.5-1-.5-1.5.2-1.5 2-2.8 3.4-3.8L12 30c1-2.6 2.2-6 3-9.2h-.4c-2 0-3.6-1.6-3.6-3.6V6.4c0-2 1.6-3.6 3.6-3.6h18v-.4C32.5 1 31.3 0 30 0H9.7v6C9.7 8 8 9.8 6 9.8H0v27C0 37.8 1 39 2.5 39h29.7V20.6H19.8c1.2 2 2.7 4.3 4 6zm-5.7-6h-1.7c-.7 2.7-1.5 5.7-2.5 8v.2c2.6-1.2 5.3-2 7.8-2.3h.4l-4-6zm9.2 8.5c0-.3-.8-.7-2-1 1 1.2 1.6 1.6 2 1.6v-.6zm0 .6v.7-.7zM7 35.3v.4h.2c.3 0 1.2-.4 3-3.5l-.3.3c-1.7 1.2-2.7 2-2.8 2.8zM29.5 9.5H29v4h.5c.5 0 .8 0 1-.2.2 0 .4-.3.5-.6l.2-1.3c0-.7 0-1.3-.4-1.6-.2 0-.7-.3-1.3-.3zm-7.4 0h-.6V11h.6c.4 0 .8 0 1-.2l.2-.6c0-.2 0-.4-.2-.6 0-.2-.4-.2-1-.2zm24-2.7v10c0 1.2-1 2.3-2.4 2.3H15c-1.4 0-2.5-1-2.5-2.3v-10c0-1.2 1-2.3 2.4-2.3h28.7c1.2 0 2.3 1 2.3 2.4zM25.4 10c0-.6-.2-1.2-.6-1.5-.4-.4-1-.6-2-.6h-3.7v7h2.4v-2.6h1.2c1 0 1.6-.2 2-.6.6-.4.8-1 .8-1.7zm8 1.5V10s-.4-.8-.7-1c-.3-.4-.6-.7-1-.8-.4-.2-1-.3-1.6-.3h-3.3v7h4.8l1-.7.8-1c.2-.5.3-1 .3-1.8zm7-3.6h-5.8v7H37v-3h3v-1.4h-3V9.4h3.4V8z"/></svg>