<svg xmlns="http://www.w3.org/2000/svg" viewBox="0 0 26 26"><path width="26" height="26" fill="#8f8f8f" d="M13 0C5.8 0 0 5.8 0 13s5.8 13 13 13 13-5.8 13-13S20.2 0 13 0zm.8 19.4c-.2.2-.5.3-1 .3-.3 0-.6 0-.8-.3-.2-.2-.3-.5-.3-.8 0-.3 0-.6.3-.8s.5-.3 1-.3c.3 0 .6 0 .8.3.2.2.3.5.3.8v.8zm1.8-6.5l-1.2 1c-.4.4-.6 1-.6 2h-2c0-1 0-1.5.2-2s.6-1 1.2-1.6c.6-.6 1-1 1-1.2.3-.4.5-.8.5-1.2 0-.5 0-1-.4-1.2-.3-.3-.7-.4-1.3-.4-.5 0-1 0-1.3.4-.3.3-.5.7-.5 1.2H9c0-1 .4-2 1-2.5.8-.6 1.8-1 3-1s2.2.4 3 1c.6.6 1 1.5 1 2.6 0 1-.5 2-1.4 3z"/></svg>