<svg xmlns="http://www.w3.org/2000/svg" id="Layer_1" viewBox="0 0 34 18"><style>.st0{fill:#FFFFFF;}</style><path d="M17.2 3.8c-3.4 0-6.2 3-6.2 6.4s2.8 6.4 6.2 6.4c3.4 0 6.2-3 6.2-6.4s-2.8-6.4-6.2-6.4zm0 9.8c-1.8 0-3.3-1.5-3.3-3.4s1.4-3.4 3.2-3.4c1.8 0 3.3 1.5 3.3 3.4s-1.5 3.4-3.3 3.4zm16.6-4.2c-4-6-10.2-9.4-16.6-9.4C10.7 0 4.7 3.4.6 9.4l-.6.8.6 1c2 2.7 4.4 5 7 6.6l.8.2c.5 0 1-.3 1.3-.8.4-.7.2-1.6-.5-2-2-1.2-4-3-5.5-5C7 5.6 12 3 17.2 3c5.5 0 10.7 3 14.2 8 .5.8 1.4 1 2 .5.7-.5.8-1.5.4-2z" class="st0"/></svg>